<svg width="256" height="256" viewBox="0 0 256 256" fill="none" xmlns="http://www.w3.org/2000/svg">
<g clip-path="url(#clip0_64_3957)">
<path d="M90.4542 69.4886C97.5978 73.8044 101.17 75.9623 104.426 75.295C105.487 75.0775 106.497 74.6592 107.401 74.0626C110.176 72.2318 111.176 68.1803 113.175 60.0772C118.351 39.1035 120.938 28.6166 125.728 27.2882C127.215 26.876 128.785 26.876 130.272 27.2882C135.062 28.6166 137.649 39.1035 142.825 60.0772C144.824 68.1803 145.824 72.2318 148.599 74.0626C149.503 74.6592 150.513 75.0775 151.574 75.295C154.83 75.9623 158.402 73.8044 165.546 69.4886C184.036 58.3176 193.281 52.7321 197.608 55.1798C198.95 55.9393 200.061 57.0498 200.82 58.3922C203.268 62.7186 197.682 71.9638 186.511 90.4542C182.196 97.5978 180.038 101.17 180.705 104.426C180.922 105.487 181.341 106.497 181.937 107.401C183.768 110.176 187.82 111.176 195.923 113.175C216.897 118.351 227.383 120.938 228.712 125.728C229.124 127.215 229.124 128.785 228.712 130.272C227.383 135.062 216.897 137.649 195.923 142.825C187.82 144.824 183.768 145.824 181.937 148.599C181.341 149.503 180.922 150.513 180.705 151.574C180.038 154.83 182.196 158.402 186.511 165.546C197.682 184.036 203.268 193.281 200.82 197.608C200.061 198.95 198.95 200.061 197.608 200.82C193.281 203.268 184.036 197.682 165.546 186.511C158.402 182.196 154.83 180.038 151.574 180.705C150.513 180.922 149.503 181.341 148.599 181.937C145.824 183.768 144.824 187.82 142.825 195.923C137.649 216.897 135.062 227.383 130.272 228.712C128.785 229.124 127.215 229.124 125.728 228.712C120.938 227.383 118.351 216.897 113.175 195.923C111.176 187.82 110.176 183.768 107.401 181.937C106.497 181.341 105.487 180.922 104.426 180.705C101.17 180.038 97.5978 182.196 90.4542 186.511C71.9638 197.682 62.7186 203.268 58.3922 200.82C57.0498 200.061 55.9393 198.95 55.1798 197.608C52.7321 193.281 58.3176 184.036 69.4886 165.546C73.8044 158.402 75.9623 154.83 75.295 151.574C75.0775 150.513 74.6592 149.503 74.0626 148.599C72.2318 145.824 68.1803 144.824 60.0772 142.825C39.1035 137.649 28.6166 135.062 27.2882 130.272C26.876 128.785 26.876 127.215 27.2882 125.728C28.6166 120.938 39.1035 118.351 60.0772 113.175C68.1803 111.176 72.2318 110.176 74.0626 107.401C74.6592 106.497 75.0775 105.487 75.295 104.426C75.9623 101.17 73.8044 97.5978 69.4886 90.4542C58.3176 71.9638 52.7321 62.7186 55.1798 58.3922C55.9393 57.0498 57.0498 55.9393 58.3922 55.1798C62.7186 52.7321 71.9638 58.3176 90.4542 69.4886Z" fill="#81D8D0"/>
</g>
<defs>
<clipPath id="clip0_64_3957">
<rect width="256" height="256" fill="white"/>
</clipPath>
</defs>
</svg>
