<svg width="256" height="256" viewBox="0 0 256 256" fill="none" xmlns="http://www.w3.org/2000/svg">
<path fill-rule="evenodd" clip-rule="evenodd" d="M109.833 17.1434C57.3047 25.4685 16.9647 70.4122 15.7877 125H74.2136C74.4999 94.1692 80.1672 66.2027 89.2829 45.6925C93.96 35.1691 99.594 26.4981 105.976 20.4242C107.23 19.2316 108.516 18.1353 109.833 17.1434ZM127.455 10.7612C63.0069 10.7612 10.7612 63.0069 10.7612 127.455C10.7612 191.904 63.0069 244.149 127.455 244.149C191.904 244.149 244.149 191.904 244.149 127.455C244.149 63.0069 191.904 10.7612 127.455 10.7612ZM145.077 17.1434C146.394 18.1353 147.681 19.2315 148.934 20.4242C155.316 26.4981 160.95 35.1691 165.627 45.6925C174.743 66.2027 180.41 94.1692 180.697 125H239.123C237.946 70.4122 197.606 25.4684 145.077 17.1434ZM175.696 125C175.41 94.7137 169.834 67.468 161.058 47.7232C156.551 37.5816 151.249 29.5293 145.487 24.0461C139.738 18.5753 133.649 15.7612 127.455 15.7612C121.261 15.7612 115.172 18.5753 109.423 24.0461C103.662 29.5293 98.3593 37.5816 93.8519 47.7232C85.0765 67.468 79.5004 94.7137 79.2138 125H175.696ZM79.2138 129.91H175.696C175.41 160.197 169.834 187.442 161.058 207.187C156.551 217.329 151.249 225.381 145.487 230.864C139.738 236.335 133.649 239.149 127.455 239.149C121.261 239.149 115.172 236.335 109.423 230.864C103.662 225.381 98.3593 217.329 93.8519 207.187C85.0765 187.442 79.5005 160.197 79.2138 129.91ZM74.2136 129.91H15.7877C16.9649 184.498 57.3048 229.442 109.833 237.767C108.516 236.775 107.23 235.679 105.976 234.486C99.594 228.412 93.96 219.741 89.2829 209.218C80.1673 188.708 74.5 160.741 74.2136 129.91ZM145.077 237.767C146.394 236.775 147.681 235.679 148.934 234.486C155.316 228.412 160.95 219.741 165.627 209.218C174.743 188.708 180.41 160.741 180.697 129.91H239.123C237.946 184.498 197.605 229.442 145.077 237.767Z" fill="#81D8D0"/>
</svg>
