<svg width="255" height="256" viewBox="0 0 255 256" fill="none" xmlns="http://www.w3.org/2000/svg">
<path fill-rule="evenodd" clip-rule="evenodd" d="M127.416 -0.00621033C128.089 -0.00617862 128.665 0.41051 128.9 1.00003C128.973 1.18261 129.013 1.38177 129.013 1.59027C129.013 34.6698 142.103 66.3933 165.401 89.7822C188.699 113.171 220.297 126.309 253.242 126.309C254.124 126.309 254.839 127.024 254.839 127.906C254.839 128.788 254.124 129.502 253.242 129.502C220.297 129.502 188.699 142.641 165.401 166.03C142.103 189.419 129.013 221.142 129.013 254.222C129.013 254.993 128.465 255.637 127.738 255.786C127.634 255.807 127.526 255.818 127.416 255.818C126.534 255.818 125.82 255.103 125.82 254.222C125.82 221.142 112.73 189.419 89.4315 166.03C66.1335 142.641 34.5359 129.502 1.59013 129.502C1.16861 129.502 0.785241 129.339 0.499888 129.072C0.18836 128.781 -0.00634766 128.366 -0.00634766 127.906C-0.00634766 127.355 0.272858 126.869 0.697523 126.582C0.952323 126.41 1.25949 126.309 1.59013 126.309C34.5359 126.309 66.1335 113.171 89.4315 89.7822C112.73 66.3933 125.82 34.6698 125.82 1.59027C125.82 0.708556 126.534 -0.00621033 127.416 -0.00621033H127.416Z" fill="#81D8D0"/>
</svg>
