<svg width="32" height="32" viewBox="0 0 32 32" fill="none" xmlns="http://www.w3.org/2000/svg">
<path d="M9.59993 26.6667H4.2666V10.6667H9.59993V26.6667ZM6.93433 8.53335C5.45913 8.53335 4.2666 7.33761 4.2666 5.86561C4.2666 4.39361 5.46127 3.20001 6.93433 3.20001C8.4042 3.20001 9.59993 4.39575 9.59993 5.86561C9.59993 7.33761 8.4042 8.53335 6.93433 8.53335ZM28.7999 26.6667H23.6725V18.88C23.6725 17.0229 23.6373 14.6347 21.0069 14.6347C18.337 14.6347 17.9263 16.6571 17.9263 18.7456V26.6667H12.7999V10.6549H17.7215V12.8427H17.7909C18.4757 11.584 20.1493 10.2571 22.6453 10.2571C27.8399 10.2571 28.7999 13.5733 28.7999 17.8848V26.6667Z" fill="#F7F7F7"/>
</svg>
