<svg width="64" height="64" viewBox="0 0 64 64" fill="none" xmlns="http://www.w3.org/2000/svg">
<path d="M17.3333 45.6053V18H36.0639C38.1973 18 40.0461 18.2987 41.6106 18.896C43.2035 19.4649 44.4408 20.3751 45.3226 21.6267C46.2044 22.8498 46.6453 24.4284 46.6453 26.3627C46.6453 27.6711 46.4177 28.7804 45.9626 29.6907C45.5075 30.6009 44.8675 31.3404 44.0426 31.9093C43.2461 32.4782 42.3217 32.9191 41.2693 33.232C40.2168 33.5164 39.0933 33.7013 37.8986 33.7867L37.3013 33.4453C39.2924 33.4738 40.9279 33.6444 42.2079 33.9573C43.4879 34.2418 44.4408 34.7822 45.0666 35.5787C45.7208 36.3467 46.0479 37.4987 46.0479 39.0347V45.6053H40.3733V39.4187C40.3733 38.3662 40.1884 37.5556 39.8186 36.9867C39.4488 36.3893 38.7804 35.9769 37.8133 35.7493C36.8746 35.5218 35.5093 35.408 33.7173 35.408H23.0079V45.6053H17.3333ZM23.0079 30.9707H36.0639C37.6568 30.9707 38.8657 30.5867 39.6906 29.8187C40.5439 29.0507 40.9706 28.0124 40.9706 26.704C40.9706 25.4524 40.5439 24.4996 39.6906 23.8453C38.8657 23.1911 37.6568 22.864 36.0639 22.864H23.0079V30.9707Z" fill="#81D8D0"/>
</svg>
