<svg width="32" height="32" viewBox="0 0 32 32" fill="none" xmlns="http://www.w3.org/2000/svg">
<path d="M4.09989 15.8919C4.09912 17.988 4.64679 20.034 5.68775 21.8376L4 28L10.3065 26.3464C12.0441 27.294 14.0004 27.7934 15.9913 27.7941H15.9965C22.5529 27.7941 27.8901 22.4584 27.8929 15.9016C27.894 12.7236 26.6577 9.73565 24.4117 7.48775C22.1655 5.23993 19.1786 4.00145 15.9965 4C9.43898 4 4.1025 9.33481 4.09985 15.8919H4.09989ZM7.85548 21.527L7.62007 21.1531C6.63023 19.5793 6.10767 17.7604 6.10853 15.8927C6.11062 10.4426 10.5461 6.00872 16.0002 6.00872C18.6415 6.00979 21.1238 7.03929 22.9908 8.90761C24.8577 10.7758 25.885 13.2594 25.8842 15.9008C25.8819 21.351 21.4463 25.7856 15.9965 25.7856H15.9927C14.2181 25.7847 12.4778 25.3082 10.96 24.4075L10.5987 24.1934L6.85632 25.1746L7.85548 21.527Z" fill="#F7F7F7"/>
<path fill-rule="evenodd" clip-rule="evenodd" d="M13.023 10.9205C12.8004 10.4256 12.566 10.4156 12.3541 10.4069C12.1809 10.3995 11.9825 10.4 11.7845 10.4C11.5863 10.4 11.2642 10.4744 10.9919 10.7719C10.7194 11.0693 9.95142 11.7883 9.95142 13.2508C9.95142 14.7135 11.0167 16.1266 11.1652 16.3251C11.3138 16.5233 13.2216 19.6203 16.2429 20.8118C18.7539 21.802 19.2648 21.605 19.8098 21.5555C20.3549 21.5059 21.5685 20.8366 21.8162 20.1425C22.0639 19.4484 22.0639 18.8536 21.9896 18.7292C21.9153 18.6053 21.7171 18.531 21.4199 18.3824C21.1225 18.2337 19.6612 17.5145 19.3887 17.4154C19.1162 17.3163 18.918 17.2668 18.7198 17.5644C18.5216 17.8617 17.9523 18.531 17.7788 18.7293C17.6054 18.9279 17.4321 18.9527 17.1347 18.804C16.8375 18.6549 15.8801 18.3413 14.7444 17.3287C13.8607 16.5409 13.2642 15.5679 13.0907 15.2704C12.9173 14.973 13.0722 14.812 13.2212 14.6638C13.3547 14.5307 13.5186 14.3169 13.6672 14.1433C13.8155 13.9697 13.8651 13.8458 13.9642 13.6476C14.0632 13.4491 14.0137 13.2755 13.9394 13.1269C13.8651 12.9783 13.2874 11.5082 13.023 10.9205Z" fill="#F7F7F7"/>
</svg>
